<svg width="30" xmlns="http://www.w3.org/2000/svg" viewBox="0 0 128 51.2">
    <defs>
        <style>
                                                                .cls-1 {
                                                                    fill: #1f70c1;
                                                                }
                                                            </style>
    </defs>
    <g id="Ebene_2" data-name="Ebene 2">
        <g id="Ebene_1-2" data-name="Ebene 1">
            <path class="cls-1" d="M0,0V3.5H24.9V0ZM28.4,0V3.5H64A13.41,13.41,0,0,0,55.6,0ZM70.9,0V3.5H92.4L91.1,0Zm36.9,0-1.3,3.5h21.3V0ZM0,6.8v3.5H24.9V6.8Zm28.4,0v3.5H68s-.5-2.7-1.3-3.5Zm42.5,0v3.5H94.7L93.5,6.8Zm34.3,0L104,10.3h23.7V6.8Zm-98,6.8v3.5H18V13.6Zm28.4,0v3.5H46.4V13.6Zm21.3,0v3.5H67.7a12.14,12.14,0,0,0,.7-3.5Zm21.2,0v3.5H97.2l-1.3-3.5Zm24.8,0-1.3,3.5h19.2V13.6ZM7.2,20.5V24H18V20.5Zm28.4,0V24H63.2a11.45,11.45,0,0,0,3-3.5Zm42.5,0V24H88.9V22.1l.7,1.9h19.8l.7-1.9V24h10.8V20.5H100.6l-1.1,3-1.1-3ZM7.2,27.3v3.5H18V27.3Zm28.4,0v3.5H66.2a11.45,11.45,0,0,0-3-3.5Zm42.5,0v3.5H88.9V27.3Zm12.7,0,1.3,3.5h14.8l1.2-3.5Zm19.3,0v3.5h10.8V27.3ZM7.2,34.1v3.5H18V34.1Zm28.4,0v3.5H46.4V34.1Zm21.3,0v3.5H68.4a11.25,11.25,0,0,0-.7-3.5Zm21.2,0v3.5H88.9V34.1Zm15.2,0,1.3,3.5h9.9l1.3-3.5Zm16.8,0v3.5h10.8V34.1ZM.2,40.9v3.5H25.1V40.9Zm28.2,0v3.5H66.8c.8-.8,1.3-3.5,1.3-3.5Zm42.7,0v3.5H88.9V40.9Zm24.6,0L97,44.4h5.1l1.2-3.5Zm14.4,0v3.5H128V40.9ZM.2,47.7v3.5H25.1V47.7Zm28.2,0v3.5H55.5a13.41,13.41,0,0,0,8.4-3.5Zm42.7,0v3.5H88.9V47.7Zm27.1,0,1.3,3.5h.2l1.3-3.5Zm11.9,0v3.5H128V47.7Z" />
        </g>
    </g>
</svg>