<?xml version="1.0" encoding="UTF-8" standalone="no"?>
<!DOCTYPE svg PUBLIC "-//W3C//DTD SVG 1.1//EN" "http://www.w3.org/Graphics/SVG/1.1/DTD/svg11.dtd">
<svg width="100%" height="100%" viewBox="0 0 178 119" version="1.1" xmlns="http://www.w3.org/2000/svg" xmlns:xlink="http://www.w3.org/1999/xlink" xml:space="preserve" xmlns:serif="http://www.serif.com/" style="fill-rule:evenodd;clip-rule:evenodd;stroke-linejoin:round;stroke-miterlimit:2;">
    <g transform="matrix(1,0,0,1,-0.14,0.00312322)">
        <g transform="matrix(1,0,0,1,-23.91,-23.95)">
            <g transform="matrix(1,0,0,1,-1614,-14.18)">
                <path d="M1812,38.13C1809.27,38.22 1810.06,39.45 1804.15,40.91C1798.18,42.38 1790.96,41.48 1784.54,44.18C1767.74,51.22 1765.02,78.44 1745.01,88.97C1731.89,96.38 1718.51,98.08 1706.55,101.83C1696.95,105.68 1690.98,108.23 1683.94,114.3C1678.48,119.01 1677.15,123.58 1671.44,129.49C1665.65,137.36 1643.7,130.37 1638.05,140.24C1641.03,142.17 1642.75,142.7 1647.98,142.01C1646.9,144.06 1640.02,146.76 1641.27,149.78C1641.27,149.78 1657.9,152.81 1671.92,144.35C1678.46,141.69 1684.59,136.06 1694.75,134.71C1707.91,132.96 1722.74,137.47 1738.65,138.74C1735.36,145.24 1731.97,149.08 1728.34,154.44C1727.22,155.65 1729.3,156.72 1733.16,155.99C1740.1,154.27 1745.13,152.41 1750.12,148.96C1756.63,144.47 1759.43,140.36 1764.92,133.85C1769.69,141.5 1786.51,143.18 1789.96,136.57C1783.54,133.85 1782.17,119.7 1784.37,113.59C1786.97,107.77 1788.84,99.54 1790.94,91.89C1792.83,85 1794,74.49 1796.26,69.11C1798.96,62.42 1804.21,60.33 1808.15,56.78C1812.09,53.23 1816.01,50.27 1815.89,42.15C1815.85,39.51 1814.49,38.05 1812,38.13Z" style="fill:rgb(31,48,95);" />
                <path d="M1643,148.4C1653.31,148.71 1656.11,148.44 1664.26,144.9C1671.19,141.89 1680.46,133.78 1688.65,131.16C1700.67,127.3 1713.56,127.88 1726.35,129.39C1730.63,129.9 1734.93,130.61 1738,130.28C1742.79,127.34 1743.02,119.36 1745.99,118.72C1745.18,134.16 1738.56,144.04 1731.94,153C1745.89,150.54 1755.21,141.83 1760.85,131.05C1762.56,127.78 1765.4,122.43 1766.7,118.75C1767.73,121.19 1765.36,122.74 1766.47,125.4C1775.45,117.99 1779.69,109.55 1783.33,97.19C1787.55,82.89 1791.88,70.6 1794.6,66.37C1797.25,62.24 1801.38,59.69 1805.15,57.05C1809.43,54.04 1813.26,50.91 1813.92,45.18C1809.4,44.76 1808.36,43.72 1807.69,41.44C1805.43,42.71 1803.35,42.99 1801,43.06C1798.96,43.12 1796.72,43.03 1793.98,43.31C1771.35,45.63 1770.3,67.75 1753.85,83.99C1752.79,85.02 1750.98,86.54 1749.78,87.44C1744.7,91.23 1739.26,93.31 1733.53,95.5C1724.25,99.04 1715.45,100.07 1706.75,103.13C1700.36,105.37 1694.42,107.94 1689.17,111.53C1687.86,112.43 1686.08,114.03 1684.94,114.96C1681.86,117.48 1679.84,120.27 1677.88,123.15C1675.86,126.11 1673.92,129.16 1670.95,132.07C1666.14,136.79 1648.18,133.45 1641.85,137.83C1641.15,138.32 1640.58,138.9 1640.2,139.6C1643.65,141.17 1645.96,140.21 1649.93,140.64C1650.42,144.43 1641.71,146.67 1643,148.4Z" style="fill:rgb(192,118,90);fill-rule:nonzero;" />
                <path d="M1787,52.65C1790.2,55.43 1796.92,53.2 1795.72,47.67C1790.74,47.25 1787.86,48.94 1787,52.65Z" style="fill:rgb(31,48,95);" />
                <path d="M1809,46.18C1808.15,47.97 1806.52,50.27 1806.52,54.82C1806.51,55.6 1805.93,56.14 1805.92,54.93C1805.96,50.48 1807.14,48.56 1808.39,46.04C1808.96,45.01 1809.31,45.43 1809,46.18Z" style="fill:rgb(31,48,95);fill-rule:nonzero;" />
                <path d="M1808,45.51C1806.99,47.21 1804.57,50.32 1804.18,54.86C1804.11,55.64 1803.47,56.12 1803.57,54.92C1804.01,50.5 1805.94,47.73 1807.41,45.32C1808.07,44.34 1808.38,44.79 1808,45.51Z" style="fill:rgb(31,48,95);fill-rule:nonzero;" />
                <path d="M1807,44.62C1805.85,46.23 1802.13,49.97 1801.35,54.45C1801.21,55.22 1800.54,55.64 1800.74,54.46C1801.55,50.09 1804.76,46.65 1806.42,44.38C1807.16,43.45 1807.44,43.93 1807,44.62Z" style="fill:rgb(31,48,95);fill-rule:nonzero;" />
                <path d="M1807,43.62C1805.64,45.06 1801.2,49.82 1799.8,54.15C1799.55,54.89 1798.83,55.22 1799.19,54.07C1800.6,49.85 1804.49,45.31 1806.46,43.3C1807.33,42.49 1807.53,43.01 1807,43.62Z" style="fill:rgb(31,48,95);fill-rule:nonzero;" />
            </g>
        </g>
    </g>
</svg>