<svg width="30" xmlns="http://www.w3.org/2000/svg" viewBox="0 0 474.72 500">
    <defs>
        <style>
                                                                .cls-1 {
                                                                    fill: #0090d4;
                                                                }

                                                                .cls-2 {
                                                                    fill: #009adc;
                                                                }

                                                                .cls-3 {
                                                                    fill: #00bce7;
                                                                }

                                                                .cls-4 {
                                                                    fill: #43c5e4;
                                                                }

                                                                .cls-5 {
                                                                    fill: none;
                                                                }
                                                            </style>
    </defs>
    <g id="Ebene_2" data-name="Ebene 2">
        <path class="cls-1" d="M231.81,0s-.05,20.81,54.34,53.86C391.77,118,391.42,176.85,391.42,189.2c0,52.44-54.58,86.34-79.91,58.9,0,0,24.85-18.44,24.85-46.8,0,0-18.22,12-27.75,14.08,0,0,12.43-21.95,6.63-60.46,0,0-9.94,19.46-41.83,35.2,0,0,12.42-27.75.83-54.25,0,0,2.48,33.13-72.89,68.33s-52.19,70.41-52.19,70.41,15-16,40.54-4.75c34.51,15.16,20.56,76-34.93,76-54,0-89.5-58.76-89.5-104.65,0-19,2.06-53.87,36.33-92.26,27.26-30.53,60.88-46.64,68.1-80.4C132.34,103.16,65,125.76,24.92,185-11.06,238.21.62,308.6,7.1,330.25,36.47,428.44,127.5,500,235.25,500c131.5,0,239.47-105.23,239.47-236.74C474.72,64.18,285.46,43.06,231.81,0ZM200,243.71c-4,.93-7.85-.75-14.25-2.69-6-1.82-8.11-1.48-8.11-1.48a101.62,101.62,0,0,1,12.67-7.26c6.37-2.93,11.8-3.08,14.33,2.74C206.25,238.85,203.23,242.94,200,243.71Z" />
        <path class="cls-2" d="M474.72,263.26c0-39.4-7.49-71.73-19.8-98.74,2.63,8.41,22.86,80.48-35.28,138.62-34.46,34.46-93.09,46.39-140.23,8.71,0,0,6,94.58-106.06,108.53-73.16,9.11-130.75-37.51-155.73-96.89-17.37-41.29-19-88.73.89-127.91C-9.55,247.16,1,310,7.1,330.25,36.47,428.44,127.5,500,235.25,500,366.75,500,474.72,394.77,474.72,263.26Z" />
        <path class="cls-3" d="M450.53,367.1c-12.43,3.37-109.75,26.52-171.12-55.25,0,0,28.52,110.69-92.67,183A238.51,238.51,0,0,0,235.25,500C329.41,500,411.49,446,450.53,367.1Z" />
        <path class="cls-4" d="M397.67,437.16C321.57,398,279.41,311.85,279.41,311.85c33.93,82.76,19.21,147.3,4,183.34A240.1,240.1,0,0,0,397.67,437.16Z" />
        <path class="cls-4" d="M252,223c-1.88,0-3.75-.09-5.6-.19-3-.17-5.89-.25-8.7-.25-19.65,0-35.19,4-47.41,9.72h0c6.37-2.93,11.8-3.08,14.33,2.74,1.66,3.83-1.36,7.92-4.64,8.69-4,.93-7.85-.75-14.25-2.69-5.37-1.64-7.63-1.52-8-1.48-21.8,15.14-28.46,35-28.5,35.07a31.63,31.63,0,0,1,15.15-7.9h0c12.41-3.34,32-6.74,53.82-18A122.41,122.41,0,0,0,252,223Z" />
        <path class="cls-5" d="M252,223c-1.88,0-3.75-.09-5.6-.19-3-.17-5.89-.25-8.7-.25-19.65,0-35.19,4-47.41,9.72h0c6.37-2.93,11.8-3.08,14.33,2.74,1.66,3.83-1.36,7.92-4.64,8.69-4,.93-7.85-.75-14.25-2.69-5.37-1.64-7.63-1.52-8-1.48-21.8,15.14-28.46,35-28.5,35.07a31.63,31.63,0,0,1,15.15-7.9h0c12.41-3.34,32-6.74,53.82-18A122.41,122.41,0,0,0,252,223Z" />
        <path class="cls-2" d="M221.9,210.47c22-6.68,38.63-13.55,51.61-20.42,0,0,12.42-27.76.82-54.29,0,0,2.49,33.16-72.94,68.39s-52.23,70.46-52.23,70.46S136.66,236.34,221.9,210.47Z" />
        <path class="cls-2" d="M253.76,223c20.93,0,42.44-4.57,55-7.67h0c2.89-5.26,5.48-13.79,6.76-21.82,2.05-12.8,2.26-22.32-.11-39.61,0,0-6.14,17.21-41.89,36.13,0,0-5.77,15.91-21.56,33Z" />
        <path class="cls-2" d="M308.74,215.35C290.19,249,252.7,264,220.3,264c4.76,0,9.78,0,15,0,27.27,0,58.69-1.18,76.37-16,12.9-10.81,24.68-25.1,24.9-46.88C336.53,201.2,318.89,212.84,308.74,215.35Z" />
        <path class="cls-3" d="M237.65,222.57c2.81,0,5.72.08,8.7.25,1.85.1,3.72.16,5.6.19,15.79-17,21.56-33,21.56-33-13,6.87-29.61,13.74-51.61,20.42-85.24,25.87-72.74,64.14-72.74,64.14S166.53,222.56,237.65,222.57Z" />
        <path class="cls-3" d="M308.74,215.35l-.13,0h0c-12.56,3.1-34,7.64-54.85,7.64H252a122.41,122.41,0,0,1-33.81,25.69c-21.87,11.27-41.41,14.67-53.82,18h0c.75-.17,1.52-.32,2.32-.44a85.08,85.08,0,0,1,10-1.28c10.15-.85,23.94-.95,43.7-.95C252.7,264,290.19,249,308.74,215.35Z" />
    </g>
</svg>